PathFileType	4	(X/Y/Z)	Patient4_TMGait_0pt6_02_right_27.trc.trc
DataRate	CameraRate	NumFrames	NumMarkers	Units	OrigDataRate	OrigDataStartFrame	OrigNumFrames
82.840236686390	82.840236686390	5	33	mm	82.840236686390	89	       141
Frame#	Time	Sacral			L.Shoulder			Chest			R.Shoulder			Neck			R.ASIS			L.ASIS			R.Thigh.Superior			R.Thigh.Lateral			R.Thigh.Inferior			R.Patella			L.Thigh.Superior			L.Thigh.Lateral			L.Thigh.Inferior			L.Patella			L.Shank.Superior			L.Shank.Lateral			L.Shank.Inferior			R.Shank.Superior			R.Shank.Lateral			R.Shank.Inferior			R.Heel			R.Midfoot.Superior			R.Midfoot.Lateral			R.Toe			L.Heel			L.Midfoot.Lateral			L.Midfoot.Superior			L.Toe			L.Elbow			L.Wrist			R.Elbow			R.Wrist			
		X1	Y1	Z1	X2	Y2	Z2	X3	Y3	Z3	X4	Y4	Z4	X5	Y5	Z5	X6	Y6	Z6	X7	Y7	Z7	X8	Y8	Z8	X9	Y9	Z9	X10	Y10	Z10	X11	Y11	Z11	X12	Y12	Z12	X13	Y13	Z13	X14	Y14	Z14	X15	Y15	Z15	X16	Y16	Z16	X17	Y17	Z17	X18	Y18	Z18	X19	Y19	Z19	X20	Y20	Z20	X21	Y21	Z21	X22	Y22	Z22	X23	Y23	Z23	X24	Y24	Z24	X25	Y25	Z25	X26	Y26	Z26	X27	Y27	Z27	X28	Y28	Z28	X29	Y29	Z29	X30	Y30	Z30	X31	Y31	Z31	X32	Y32	Z32	X33	Y33	Z33	

89	33.502285714286	873.561809055909	1015.644978146818	432.277131467956	1069.089303733493	1423.805821900969	232.255520674843	1176.282208675378	1349.933820512805	387.900809178730	1111.017650015405	1440.511976608107	560.927854751190	1084.005130196863	1488.979158429417	378.911163754823	1095.881415749679	937.259183116343	544.562907883457	1080.797852032750	953.989358024025	271.078676462967	1133.122101402012	734.857528312279	523.586252647976	1050.995735064315	625.938478719852	584.975378168999	1132.833252766957	567.001588246994	511.288377988047	1121.393383646421	457.330493915891	529.349912240289	1140.155503076152	759.026223860889	300.510340566151	1061.031895802563	637.560748366349	242.663638098653	1154.501020389448	566.890578427789	304.024243751350	1160.758651530142	496.261374928019	312.352998224511	1135.459279183213	422.819833442631	305.584554513940	1048.209009123722	304.582811350337	257.199363016680	1107.541469829473	196.621252865859	328.337049829059	1042.944034216459	392.700630776020	529.473811512168	919.617880554957	351.659690530420	583.201975159448	908.020571401867	244.377860872924	528.671259185473	706.739894222390	172.739398497245	489.203347320756	876.970663039233	127.520859479781	535.609297545508	767.491849925085	119.035185068707	564.664125902206	949.524582994630	31.809589185056	565.624326262756	986.924374200996	38.625679855009	375.668815968695	1059.224944057714	35.163019077575	293.451500729519	1141.455217431148	97.685046776515	318.081797287018	1270.255373448585	48.263862418191	288.896123192259	960.782152258599	1082.803265925161	131.934289160534	1039.587022955458	833.023042220888	112.211777074384	1122.718719817570	1100.315387124721	696.149318038938	1318.235619095642	964.424955193022	599.942235868464	
90	33.514357142857	873.219827318353	1015.926602131782	430.219011567691	1070.908555631517	1423.974448549403	230.570085920058	1176.722749272660	1350.237451705055	387.216702957904	1110.049723286584	1440.929245667684	559.659751964549	1084.563314689696	1489.356347056429	377.276704913917	1095.503291008763	937.704553916590	543.320023699946	1081.090581857858	954.543144018237	269.820145667906	1138.184267506097	737.977447313877	522.469911269033	1059.513875404655	627.246029477653	584.448127702318	1143.139654067616	569.894734719932	510.974470558572	1133.385609775005	459.056154377077	529.389967215528	1138.470502462822	757.815365359640	297.624470513967	1057.445759139288	637.495887192315	241.136806370639	1150.223628558426	565.898778342193	302.221345549511	1155.661280118404	495.479919365683	310.803391848176	1130.102441826503	422.261819727762	304.313218567297	1042.239578309569	304.351892041759	256.266269339421	1100.956981498333	196.280434376688	327.733152545097	1053.281031753684	394.838726310923	529.237898836399	928.419230771634	357.624985545177	582.522951521386	913.829429880197	250.656850366141	528.494619662349	710.958679997941	187.291908999854	488.211677120618	878.766084133419	133.695510908098	535.451031507732	768.698592313676	130.597431559985	564.028453999843	946.363139356525	32.601304602524	566.192703435491	979.640687374125	38.632669652386	375.566804769082	1051.921780895783	35.076397724088	293.343886969561	1134.278377524135	97.469129927702	317.936589228416	1263.055165122417	47.782427733051	288.806134038585	964.918869475552	1082.985241610573	127.583305939334	1048.891053093334	834.923990219512	107.464203321002	1113.419210415130	1100.125904392313	695.089381517090	1301.382203883729	948.969232553514	605.029073721384	
91	33.526428571429	872.834431282454	1016.153156304285	428.320207917303	1072.621692245673	1424.144652188026	229.136431239964	1177.081591777448	1350.501223104822	386.740033976777	1109.010941229838	1441.205557551782	558.643006929134	1085.083280200122	1489.696357299995	375.936626315305	1095.169976544193	938.136691487282	542.119311040954	1081.288388702860	955.086367986028	268.566351120973	1142.984341634789	741.269394028464	521.189935446107	1067.891107075622	628.892387340084	583.928653953124	1153.086337667403	573.205954432887	510.518598658104	1145.241069098529	461.321384866313	529.217182442181	1136.793331180920	756.709620244024	295.055780179783	1054.037212579243	637.477766356406	239.735180886898	1146.032828440762	564.952492912880	300.631028691869	1150.650407914202	494.714789589417	309.452487487354	1124.838306028336	421.727167460459	303.195603376746	1036.381312494861	304.173735559821	255.434740624864	1094.424468679063	195.951739113359	327.198034959276	1063.719214218611	397.316553506705	528.909953448380	937.573497721687	363.547699148890	581.785861447113	920.290233328820	256.953006229305	528.237698974002	716.285608712181	200.977119679418	487.178674417609	881.654047295658	140.146767388474	535.342888235651	771.205108881232	141.807022649700	563.390020463193	944.680308731308	34.178706966744	566.799068909584	972.362188324483	38.653699680630	375.454233585989	1044.630202768924	35.013801905830	293.237062369310	1127.116861798585	97.267138665582	317.802995420896	1255.865693078441	47.301162888251	288.717183897406	969.233124269614	1083.172749940292	123.326439663789	1058.213355393898	836.892486035400	102.869229204380	1104.084966464249	1099.910180314337	694.018027948401	1283.377195132990	934.041348291619	610.702074057726	
92	33.538500000000	872.440099802682	1016.380758588555	426.570171715096	1074.208584799517	1424.369662647073	227.960338049593	1177.368866529344	1350.767233720933	386.448866250916	1107.947545287275	1441.378537863175	557.871295438376	1085.576735901125	1490.033036677253	374.898889061370	1094.878969557595	938.615636939306	540.951651791745	1081.422946688652	955.632103758394	267.317960426621	1147.442447186488	744.725892251685	519.720323640518	1076.030256509237	630.887325755053	583.405492176392	1162.567092634052	576.929033493142	509.901898845908	1156.858128485734	464.112426675308	528.861133691569	1135.169711994701	755.722183122905	292.846964446453	1050.799120066340	637.505670242066	238.500052683552	1141.931268171418	564.047075314045	299.283872312279	1145.732273914910	493.968919895338	308.352880053266	1119.667132329456	421.223380732482	302.270278301862	1030.634017720875	304.061244923790	254.731509111930	1087.939411755660	195.644143120331	326.753157499561	1074.168655729471	400.123975172439	528.528790236515	946.987156172806	369.320559810486	581.036373764680	927.400417967623	263.103433464440	527.952707086007	722.650981296798	213.385543439783	486.202307986481	885.740119805285	146.624714685522	535.303973482541	775.077519204228	152.270569980003	562.808556011680	944.753440854881	36.529282314130	567.405739637791	965.088849103753	38.689408841974	375.332573549715	1037.350024442256	34.977243600511	293.131661191730	1119.964366235299	97.087798307096	317.681592589439	1248.682479395711	46.842832263362	288.624575571805	973.702377903841	1083.416624148951	119.223707812245	1067.524852615674	838.974729499682	98.454909651116	1094.746006311138	1099.718298708985	692.940248121521	1264.271500488096	919.805796904176	616.931372609419	
93	33.550571428571	872.064298937362	1016.656760712132	424.952666797091	1075.668518529112	1424.691058213990	227.035411834330	1177.600180878038	1351.068725405326	386.319705517180	1106.899482085729	1441.484819263347	557.329606107592	1086.055002436777	1490.393690682671	374.155884258094	1094.616952702179	939.189919626897	539.819970542236	1081.526530089563	956.183280480281	266.092167264038	1151.512702364537	748.337648828351	518.069776045092	1083.856342025734	633.223962327500	582.875233731700	1171.515181738009	581.041372582781	509.128652901914	1168.156607074317	467.402757341568	528.356394409283	1133.621347730508	754.843403730310	291.022365939071	1047.707367040321	637.573732594718	237.459872433738	1137.904798834979	563.174957864200	298.200959012290	1140.893828763465	493.242148105201	307.537615278614	1114.572672308734	420.754753459532	301.561438470022	1024.983705482760	304.018963701292	254.170991791964	1081.489076261890	195.364049540639	326.413211083649	1084.565037627321	403.235502599588	528.131349608859	956.592459245981	374.828045459936	580.330636261472	935.165396523398	268.940433220448	527.693817410357	729.985558929415	224.171067775689	485.388415162464	891.113625950803	152.858840805283	535.345782449827	780.361740570301	161.628448184855	562.351522463846	946.818090880441	39.525467917224	567.980844354833	957.817652537923	38.739642030043	375.204882302664	1030.078586768022	34.965818247129	293.029265630442	1112.814235476028	96.935158282174	317.572979329333	1241.499931990799	46.421095233076	288.526579912386	978.280613423085	1083.765113657516	115.328207116923	1076.799282221479	841.222606959432	94.252397233174	1085.439563151646	1099.606080268495	691.862432325102	1244.150361109397	906.440778994883	623.656647533510	
